<mxfile host="app.diagrams.net" modified="2022-01-28T03:38:02.570Z" agent="5.0 (Macintosh; Intel Mac OS X 10_15_7) AppleWebKit/537.36 (KHTML, like Gecko) Chrome/97.0.4692.99 Safari/537.36" etag="S9jNI5Nov74IBpu9yx_6" version="16.4.11" type="github">
  <diagram id="yZWEoiKFTk_RE_lkLRRF" name="Page-1">
    <mxGraphModel dx="788" dy="604" grid="1" gridSize="10" guides="1" tooltips="1" connect="1" arrows="1" fold="1" page="1" pageScale="1" pageWidth="850" pageHeight="1100" math="0" shadow="0">
      <root>
        <mxCell id="0" />
        <mxCell id="1" parent="0" />
        <mxCell id="Aqwf1nDUhG2ANLDway5e-1" value="" style="whiteSpace=wrap;html=1;aspect=fixed;fillColor=#f5f5f5;fontColor=#333333;strokeColor=#666666;" vertex="1" parent="1">
          <mxGeometry x="320" y="40" width="670" height="670" as="geometry" />
        </mxCell>
        <mxCell id="Aqwf1nDUhG2ANLDway5e-3" value="&lt;font style=&quot;font-size: 19px;&quot;&gt;COVID 19 Tracker&lt;/font&gt;" style="text;html=1;strokeColor=none;fillColor=none;align=center;verticalAlign=middle;whiteSpace=wrap;rounded=0;fontSize=19;" vertex="1" parent="1">
          <mxGeometry x="350" y="70" width="200" height="30" as="geometry" />
        </mxCell>
        <mxCell id="Aqwf1nDUhG2ANLDway5e-4" value="Worldwide" style="rounded=1;whiteSpace=wrap;html=1;fontSize=12;" vertex="1" parent="1">
          <mxGeometry x="610" y="70" width="150" height="30" as="geometry" />
        </mxCell>
        <mxCell id="Aqwf1nDUhG2ANLDway5e-5" value="" style="rounded=1;whiteSpace=wrap;html=1;fontSize=12;" vertex="1" parent="1">
          <mxGeometry x="350" y="140" width="130" height="80" as="geometry" />
        </mxCell>
        <mxCell id="Aqwf1nDUhG2ANLDway5e-6" value="Coronavirus Cases" style="text;html=1;strokeColor=none;fillColor=none;align=left;verticalAlign=middle;whiteSpace=wrap;rounded=0;fontSize=12;" vertex="1" parent="1">
          <mxGeometry x="360" y="140" width="130" height="30" as="geometry" />
        </mxCell>
        <mxCell id="Aqwf1nDUhG2ANLDway5e-9" value="+2,000&lt;span style=&quot;color: rgba(0 , 0 , 0 , 0) ; font-family: monospace ; font-size: 0px&quot;&gt;%3CmxGraphModel%3E%3Croot%3E%3CmxCell%20id%3D%220%22%2F%3E%3CmxCell%20id%3D%221%22%20parent%3D%220%22%2F%3E%3CmxCell%20id%3D%222%22%20value%3D%22Coronavirus%20Cases%22%20style%3D%22text%3Bhtml%3D1%3BstrokeColor%3Dnone%3BfillColor%3Dnone%3Balign%3Dleft%3BverticalAlign%3Dmiddle%3BwhiteSpace%3Dwrap%3Brounded%3D0%3BfontSize%3D12%3B%22%20vertex%3D%221%22%20parent%3D%221%22%3E%3CmxGeometry%20x%3D%22360%22%20y%3D%22100%22%20width%3D%22130%22%20height%3D%2230%22%20as%3D%22geometry%22%2F%3E%3C%2FmxCell%3E%3C%2Froot%3E%3C%2FmxGraphModel%3E&lt;/span&gt;" style="text;html=1;strokeColor=none;fillColor=none;align=left;verticalAlign=middle;whiteSpace=wrap;rounded=0;fontSize=12;" vertex="1" parent="1">
          <mxGeometry x="360" y="165" width="130" height="30" as="geometry" />
        </mxCell>
        <mxCell id="Aqwf1nDUhG2ANLDway5e-10" value="1.2M Total" style="text;html=1;strokeColor=none;fillColor=none;align=left;verticalAlign=middle;whiteSpace=wrap;rounded=0;fontSize=12;" vertex="1" parent="1">
          <mxGeometry x="360" y="190" width="130" height="30" as="geometry" />
        </mxCell>
        <mxCell id="Aqwf1nDUhG2ANLDway5e-11" value="" style="rounded=1;whiteSpace=wrap;html=1;fontSize=12;" vertex="1" parent="1">
          <mxGeometry x="500" y="140" width="130" height="80" as="geometry" />
        </mxCell>
        <mxCell id="Aqwf1nDUhG2ANLDway5e-12" value="Recovered" style="text;html=1;strokeColor=none;fillColor=none;align=left;verticalAlign=middle;whiteSpace=wrap;rounded=0;fontSize=12;" vertex="1" parent="1">
          <mxGeometry x="510" y="140" width="100" height="30" as="geometry" />
        </mxCell>
        <mxCell id="Aqwf1nDUhG2ANLDway5e-13" value="+2,000&lt;span style=&quot;color: rgba(0 , 0 , 0 , 0) ; font-family: monospace ; font-size: 0px&quot;&gt;%3CmxGraphModel%3E%3Croot%3E%3CmxCell%20id%3D%220%22%2F%3E%3CmxCell%20id%3D%221%22%20parent%3D%220%22%2F%3E%3CmxCell%20id%3D%222%22%20value%3D%22Coronavirus%20Cases%22%20style%3D%22text%3Bhtml%3D1%3BstrokeColor%3Dnone%3BfillColor%3Dnone%3Balign%3Dleft%3BverticalAlign%3Dmiddle%3BwhiteSpace%3Dwrap%3Brounded%3D0%3BfontSize%3D12%3B%22%20vertex%3D%221%22%20parent%3D%221%22%3E%3CmxGeometry%20x%3D%22360%22%20y%3D%22100%22%20width%3D%22130%22%20height%3D%2230%22%20as%3D%22geometry%22%2F%3E%3C%2FmxCell%3E%3C%2Froot%3E%3C%2FmxGraphModel%3E&lt;/span&gt;" style="text;html=1;strokeColor=none;fillColor=none;align=left;verticalAlign=middle;whiteSpace=wrap;rounded=0;fontSize=12;" vertex="1" parent="1">
          <mxGeometry x="510" y="165" width="130" height="30" as="geometry" />
        </mxCell>
        <mxCell id="Aqwf1nDUhG2ANLDway5e-14" value="1.2M Total" style="text;html=1;strokeColor=none;fillColor=none;align=left;verticalAlign=middle;whiteSpace=wrap;rounded=0;fontSize=12;" vertex="1" parent="1">
          <mxGeometry x="510" y="190" width="130" height="30" as="geometry" />
        </mxCell>
        <mxCell id="Aqwf1nDUhG2ANLDway5e-22" value="" style="rounded=1;whiteSpace=wrap;html=1;fontSize=19;arcSize=3;" vertex="1" parent="1">
          <mxGeometry x="350" y="240" width="420" height="390" as="geometry" />
        </mxCell>
        <mxCell id="Aqwf1nDUhG2ANLDway5e-24" value="Map" style="html=1;strokeColor=none;fillColor=#0079D6;labelPosition=center;verticalLabelPosition=middle;verticalAlign=top;align=center;fontSize=12;outlineConnect=0;spacingTop=-6;fontColor=#FFFFFF;sketch=0;shape=mxgraph.sitemap.map;" vertex="1" parent="1">
          <mxGeometry x="410" y="300" width="300" height="240" as="geometry" />
        </mxCell>
        <mxCell id="Aqwf1nDUhG2ANLDway5e-30" style="edgeStyle=orthogonalEdgeStyle;rounded=0;orthogonalLoop=1;jettySize=auto;html=1;exitX=0.75;exitY=0;exitDx=0;exitDy=0;entryX=0.567;entryY=-0.078;entryDx=0;entryDy=0;entryPerimeter=0;fontSize=19;" edge="1" parent="1" source="Aqwf1nDUhG2ANLDway5e-26" target="Aqwf1nDUhG2ANLDway5e-27">
          <mxGeometry relative="1" as="geometry" />
        </mxCell>
        <mxCell id="Aqwf1nDUhG2ANLDway5e-26" value="" style="rounded=1;whiteSpace=wrap;html=1;fontSize=12;" vertex="1" parent="1">
          <mxGeometry x="640" y="140" width="130" height="80" as="geometry" />
        </mxCell>
        <mxCell id="Aqwf1nDUhG2ANLDway5e-27" value="Recovered" style="text;html=1;strokeColor=none;fillColor=none;align=left;verticalAlign=middle;whiteSpace=wrap;rounded=0;fontSize=12;" vertex="1" parent="1">
          <mxGeometry x="660" y="140" width="90" height="30" as="geometry" />
        </mxCell>
        <mxCell id="Aqwf1nDUhG2ANLDway5e-28" value="+2,000&lt;span style=&quot;color: rgba(0 , 0 , 0 , 0) ; font-family: monospace ; font-size: 0px&quot;&gt;%3CmxGraphModel%3E%3Croot%3E%3CmxCell%20id%3D%220%22%2F%3E%3CmxCell%20id%3D%221%22%20parent%3D%220%22%2F%3E%3CmxCell%20id%3D%222%22%20value%3D%22Coronavirus%20Cases%22%20style%3D%22text%3Bhtml%3D1%3BstrokeColor%3Dnone%3BfillColor%3Dnone%3Balign%3Dleft%3BverticalAlign%3Dmiddle%3BwhiteSpace%3Dwrap%3Brounded%3D0%3BfontSize%3D12%3B%22%20vertex%3D%221%22%20parent%3D%221%22%3E%3CmxGeometry%20x%3D%22360%22%20y%3D%22100%22%20width%3D%22130%22%20height%3D%2230%22%20as%3D%22geometry%22%2F%3E%3C%2FmxCell%3E%3C%2Froot%3E%3C%2FmxGraphModel%3E&lt;/span&gt;" style="text;html=1;strokeColor=none;fillColor=none;align=left;verticalAlign=middle;whiteSpace=wrap;rounded=0;fontSize=12;" vertex="1" parent="1">
          <mxGeometry x="660" y="165" width="60" height="25" as="geometry" />
        </mxCell>
        <mxCell id="Aqwf1nDUhG2ANLDway5e-29" value="1.2M Total" style="text;html=1;strokeColor=none;fillColor=none;align=left;verticalAlign=middle;whiteSpace=wrap;rounded=0;fontSize=12;" vertex="1" parent="1">
          <mxGeometry x="660" y="190" width="90" height="30" as="geometry" />
        </mxCell>
        <mxCell id="Aqwf1nDUhG2ANLDway5e-31" style="edgeStyle=orthogonalEdgeStyle;rounded=0;orthogonalLoop=1;jettySize=auto;html=1;exitX=0.25;exitY=0;exitDx=0;exitDy=0;entryX=0.099;entryY=0.002;entryDx=0;entryDy=0;entryPerimeter=0;fontSize=19;" edge="1" parent="1" source="Aqwf1nDUhG2ANLDway5e-26" target="Aqwf1nDUhG2ANLDway5e-26">
          <mxGeometry relative="1" as="geometry" />
        </mxCell>
        <mxCell id="Aqwf1nDUhG2ANLDway5e-32" value="" style="rounded=1;whiteSpace=wrap;html=1;fontSize=19;arcSize=5;" vertex="1" parent="1">
          <mxGeometry x="800" y="60" width="170" height="570" as="geometry" />
        </mxCell>
        <mxCell id="Aqwf1nDUhG2ANLDway5e-33" value="&lt;font style=&quot;font-size: 13px;&quot;&gt;Cases by Country&lt;/font&gt;" style="text;html=1;strokeColor=none;fillColor=none;align=center;verticalAlign=middle;whiteSpace=wrap;rounded=0;fontSize=13;" vertex="1" parent="1">
          <mxGeometry x="820" y="70" width="130" height="30" as="geometry" />
        </mxCell>
        <mxCell id="Aqwf1nDUhG2ANLDway5e-34" value="&lt;font style=&quot;font-size: 13px&quot;&gt;Worldwide Cases&lt;/font&gt;" style="text;html=1;strokeColor=none;fillColor=none;align=center;verticalAlign=middle;whiteSpace=wrap;rounded=0;fontSize=13;" vertex="1" parent="1">
          <mxGeometry x="800" y="450" width="130" height="30" as="geometry" />
        </mxCell>
        <mxCell id="Aqwf1nDUhG2ANLDway5e-50" value="" style="fillColor=#10739E;strokeColor=none;fontSize=13;" vertex="1" parent="1">
          <mxGeometry x="810" y="515" width="30" height="100" as="geometry" />
        </mxCell>
        <mxCell id="Aqwf1nDUhG2ANLDway5e-51" value="" style="shape=mxgraph.arrows2.arrow;dy=0.4;dx=16;notch=0;direction=north;fillColor=#1699D3;strokeColor=none;fontSize=13;" vertex="1" parent="Aqwf1nDUhG2ANLDway5e-50">
          <mxGeometry x="3" y="30" width="24" height="70" as="geometry" />
        </mxCell>
        <mxCell id="Aqwf1nDUhG2ANLDway5e-52" value="Label" style="text;html=1;align=center;verticalAlign=middle;whiteSpace=wrap;fontColor=#FFFFFF;fontSize=10;" vertex="1" parent="Aqwf1nDUhG2ANLDway5e-50">
          <mxGeometry width="30" height="20" as="geometry" />
        </mxCell>
        <mxCell id="Aqwf1nDUhG2ANLDway5e-53" value="" style="fillColor=#F2931E;strokeColor=none;fontSize=13;" vertex="1" parent="1">
          <mxGeometry x="845" y="495" width="30" height="120" as="geometry" />
        </mxCell>
        <mxCell id="Aqwf1nDUhG2ANLDway5e-54" value="" style="shape=mxgraph.arrows2.arrow;dy=0.4;dx=16;notch=0;direction=south;fillColor=#F5AB50;strokeColor=none;fontSize=13;" vertex="1" parent="Aqwf1nDUhG2ANLDway5e-53">
          <mxGeometry x="3" width="24" height="80" as="geometry" />
        </mxCell>
        <mxCell id="Aqwf1nDUhG2ANLDway5e-55" value="Label" style="text;html=1;align=center;verticalAlign=middle;whiteSpace=wrap;fontColor=#FFFFFF;fontSize=10;" vertex="1" parent="Aqwf1nDUhG2ANLDway5e-53">
          <mxGeometry width="30" height="20" as="geometry" />
        </mxCell>
        <mxCell id="Aqwf1nDUhG2ANLDway5e-56" value="" style="fillColor=#AE4132;strokeColor=none;fontSize=13;" vertex="1" parent="1">
          <mxGeometry x="880" y="485" width="30" height="130" as="geometry" />
        </mxCell>
        <mxCell id="Aqwf1nDUhG2ANLDway5e-57" value="" style="shape=mxgraph.arrows2.arrow;dy=0.4;dx=16;notch=0;direction=north;fillColor=#E85642;strokeColor=none;fontSize=13;" vertex="1" parent="Aqwf1nDUhG2ANLDway5e-56">
          <mxGeometry x="3" y="80" width="24" height="50" as="geometry" />
        </mxCell>
        <mxCell id="Aqwf1nDUhG2ANLDway5e-58" value="Label" style="text;html=1;align=center;verticalAlign=middle;whiteSpace=wrap;fontColor=#FFFFFF;fontSize=10;" vertex="1" parent="Aqwf1nDUhG2ANLDway5e-56">
          <mxGeometry width="30" height="20" as="geometry" />
        </mxCell>
        <mxCell id="Aqwf1nDUhG2ANLDway5e-59" value="" style="fillColor=#12AAB5;strokeColor=none;fontSize=13;" vertex="1" parent="1">
          <mxGeometry x="915" y="535" width="30" height="80" as="geometry" />
        </mxCell>
        <mxCell id="Aqwf1nDUhG2ANLDway5e-60" value="" style="shape=mxgraph.arrows2.arrow;dy=0.4;dx=16;notch=0;direction=south;fillColor=#64BBE2;strokeColor=none;fontSize=13;" vertex="1" parent="Aqwf1nDUhG2ANLDway5e-59">
          <mxGeometry x="3" width="24" height="30" as="geometry" />
        </mxCell>
        <mxCell id="Aqwf1nDUhG2ANLDway5e-61" value="Label" style="text;html=1;align=center;verticalAlign=middle;whiteSpace=wrap;fontColor=#FFFFFF;fontSize=10;" vertex="1" parent="Aqwf1nDUhG2ANLDway5e-59">
          <mxGeometry width="30" height="20" as="geometry" />
        </mxCell>
        <mxCell id="Aqwf1nDUhG2ANLDway5e-76" value="" style="shape=table;html=1;whiteSpace=wrap;startSize=0;container=1;collapsible=0;childLayout=tableLayout;columnLines=0;rowLines=0;fontSize=13;" vertex="1" parent="1">
          <mxGeometry x="813" y="130" width="147" height="120" as="geometry" />
        </mxCell>
        <mxCell id="Aqwf1nDUhG2ANLDway5e-77" value="" style="shape=tableRow;horizontal=0;startSize=0;swimlaneHead=0;swimlaneBody=0;top=0;left=0;bottom=0;right=0;collapsible=0;dropTarget=0;fillColor=none;points=[[0,0.5],[1,0.5]];portConstraint=eastwest;fontSize=13;" vertex="1" parent="Aqwf1nDUhG2ANLDway5e-76">
          <mxGeometry width="147" height="40" as="geometry" />
        </mxCell>
        <mxCell id="Aqwf1nDUhG2ANLDway5e-78" value="Value 1" style="shape=partialRectangle;html=1;whiteSpace=wrap;connectable=0;fillColor=none;top=0;left=0;bottom=0;right=0;overflow=hidden;fontSize=12;" vertex="1" parent="Aqwf1nDUhG2ANLDway5e-77">
          <mxGeometry width="49" height="40" as="geometry">
            <mxRectangle width="49" height="40" as="alternateBounds" />
          </mxGeometry>
        </mxCell>
        <mxCell id="Aqwf1nDUhG2ANLDway5e-79" value="Value 2" style="shape=partialRectangle;html=1;whiteSpace=wrap;connectable=0;fillColor=none;top=0;left=0;bottom=0;right=0;overflow=hidden;fontSize=12;" vertex="1" parent="Aqwf1nDUhG2ANLDway5e-77">
          <mxGeometry x="49" width="49" height="40" as="geometry">
            <mxRectangle width="49" height="40" as="alternateBounds" />
          </mxGeometry>
        </mxCell>
        <mxCell id="Aqwf1nDUhG2ANLDway5e-80" value="Value 3" style="shape=partialRectangle;html=1;whiteSpace=wrap;connectable=0;fillColor=none;top=0;left=0;bottom=0;right=0;overflow=hidden;fontSize=12;" vertex="1" parent="Aqwf1nDUhG2ANLDway5e-77">
          <mxGeometry x="98" width="49" height="40" as="geometry">
            <mxRectangle width="49" height="40" as="alternateBounds" />
          </mxGeometry>
        </mxCell>
        <mxCell id="Aqwf1nDUhG2ANLDway5e-81" value="" style="shape=tableRow;horizontal=0;startSize=0;swimlaneHead=0;swimlaneBody=0;top=0;left=0;bottom=0;right=0;collapsible=0;dropTarget=0;fillColor=none;points=[[0,0.5],[1,0.5]];portConstraint=eastwest;fontSize=13;" vertex="1" parent="Aqwf1nDUhG2ANLDway5e-76">
          <mxGeometry y="40" width="147" height="40" as="geometry" />
        </mxCell>
        <mxCell id="Aqwf1nDUhG2ANLDway5e-82" value="Value 4" style="shape=partialRectangle;html=1;whiteSpace=wrap;connectable=0;fillColor=none;top=0;left=0;bottom=0;right=0;overflow=hidden;fontSize=12;" vertex="1" parent="Aqwf1nDUhG2ANLDway5e-81">
          <mxGeometry width="49" height="40" as="geometry">
            <mxRectangle width="49" height="40" as="alternateBounds" />
          </mxGeometry>
        </mxCell>
        <mxCell id="Aqwf1nDUhG2ANLDway5e-83" value="Value 5" style="shape=partialRectangle;html=1;whiteSpace=wrap;connectable=0;fillColor=none;top=0;left=0;bottom=0;right=0;overflow=hidden;fontSize=12;" vertex="1" parent="Aqwf1nDUhG2ANLDway5e-81">
          <mxGeometry x="49" width="49" height="40" as="geometry">
            <mxRectangle width="49" height="40" as="alternateBounds" />
          </mxGeometry>
        </mxCell>
        <mxCell id="Aqwf1nDUhG2ANLDway5e-84" value="Value 6" style="shape=partialRectangle;html=1;whiteSpace=wrap;connectable=0;fillColor=none;top=0;left=0;bottom=0;right=0;overflow=hidden;fontSize=12;" vertex="1" parent="Aqwf1nDUhG2ANLDway5e-81">
          <mxGeometry x="98" width="49" height="40" as="geometry">
            <mxRectangle width="49" height="40" as="alternateBounds" />
          </mxGeometry>
        </mxCell>
        <mxCell id="Aqwf1nDUhG2ANLDway5e-85" value="" style="shape=tableRow;horizontal=0;startSize=0;swimlaneHead=0;swimlaneBody=0;top=0;left=0;bottom=0;right=0;collapsible=0;dropTarget=0;fillColor=none;points=[[0,0.5],[1,0.5]];portConstraint=eastwest;fontSize=13;" vertex="1" parent="Aqwf1nDUhG2ANLDway5e-76">
          <mxGeometry y="80" width="147" height="40" as="geometry" />
        </mxCell>
        <mxCell id="Aqwf1nDUhG2ANLDway5e-86" value="Value 7" style="shape=partialRectangle;html=1;whiteSpace=wrap;connectable=0;fillColor=none;top=0;left=0;bottom=0;right=0;overflow=hidden;fontSize=12;" vertex="1" parent="Aqwf1nDUhG2ANLDway5e-85">
          <mxGeometry width="49" height="40" as="geometry">
            <mxRectangle width="49" height="40" as="alternateBounds" />
          </mxGeometry>
        </mxCell>
        <mxCell id="Aqwf1nDUhG2ANLDway5e-87" value="Value 8" style="shape=partialRectangle;html=1;whiteSpace=wrap;connectable=0;fillColor=none;top=0;left=0;bottom=0;right=0;overflow=hidden;fontSize=12;" vertex="1" parent="Aqwf1nDUhG2ANLDway5e-85">
          <mxGeometry x="49" width="49" height="40" as="geometry">
            <mxRectangle width="49" height="40" as="alternateBounds" />
          </mxGeometry>
        </mxCell>
        <mxCell id="Aqwf1nDUhG2ANLDway5e-88" value="Value 9" style="shape=partialRectangle;html=1;whiteSpace=wrap;connectable=0;fillColor=none;top=0;left=0;bottom=0;right=0;overflow=hidden;fontSize=12;" vertex="1" parent="Aqwf1nDUhG2ANLDway5e-85">
          <mxGeometry x="98" width="49" height="40" as="geometry">
            <mxRectangle width="49" height="40" as="alternateBounds" />
          </mxGeometry>
        </mxCell>
        <mxCell id="Aqwf1nDUhG2ANLDway5e-90" value="" style="shape=table;html=1;whiteSpace=wrap;startSize=0;container=1;collapsible=0;childLayout=tableLayout;columnLines=0;rowLines=0;fontSize=13;" vertex="1" parent="1">
          <mxGeometry x="813" y="260" width="147" height="120" as="geometry" />
        </mxCell>
        <mxCell id="Aqwf1nDUhG2ANLDway5e-91" value="" style="shape=tableRow;horizontal=0;startSize=0;swimlaneHead=0;swimlaneBody=0;top=0;left=0;bottom=0;right=0;collapsible=0;dropTarget=0;fillColor=none;points=[[0,0.5],[1,0.5]];portConstraint=eastwest;fontSize=13;" vertex="1" parent="Aqwf1nDUhG2ANLDway5e-90">
          <mxGeometry width="147" height="40" as="geometry" />
        </mxCell>
        <mxCell id="Aqwf1nDUhG2ANLDway5e-92" value="Value 1" style="shape=partialRectangle;html=1;whiteSpace=wrap;connectable=0;fillColor=none;top=0;left=0;bottom=0;right=0;overflow=hidden;fontSize=12;" vertex="1" parent="Aqwf1nDUhG2ANLDway5e-91">
          <mxGeometry width="49" height="40" as="geometry">
            <mxRectangle width="49" height="40" as="alternateBounds" />
          </mxGeometry>
        </mxCell>
        <mxCell id="Aqwf1nDUhG2ANLDway5e-93" value="Value 2" style="shape=partialRectangle;html=1;whiteSpace=wrap;connectable=0;fillColor=none;top=0;left=0;bottom=0;right=0;overflow=hidden;fontSize=12;" vertex="1" parent="Aqwf1nDUhG2ANLDway5e-91">
          <mxGeometry x="49" width="49" height="40" as="geometry">
            <mxRectangle width="49" height="40" as="alternateBounds" />
          </mxGeometry>
        </mxCell>
        <mxCell id="Aqwf1nDUhG2ANLDway5e-94" value="Value 3" style="shape=partialRectangle;html=1;whiteSpace=wrap;connectable=0;fillColor=none;top=0;left=0;bottom=0;right=0;overflow=hidden;fontSize=12;" vertex="1" parent="Aqwf1nDUhG2ANLDway5e-91">
          <mxGeometry x="98" width="49" height="40" as="geometry">
            <mxRectangle width="49" height="40" as="alternateBounds" />
          </mxGeometry>
        </mxCell>
        <mxCell id="Aqwf1nDUhG2ANLDway5e-95" value="" style="shape=tableRow;horizontal=0;startSize=0;swimlaneHead=0;swimlaneBody=0;top=0;left=0;bottom=0;right=0;collapsible=0;dropTarget=0;fillColor=none;points=[[0,0.5],[1,0.5]];portConstraint=eastwest;fontSize=13;" vertex="1" parent="Aqwf1nDUhG2ANLDway5e-90">
          <mxGeometry y="40" width="147" height="40" as="geometry" />
        </mxCell>
        <mxCell id="Aqwf1nDUhG2ANLDway5e-96" value="Value 4" style="shape=partialRectangle;html=1;whiteSpace=wrap;connectable=0;fillColor=none;top=0;left=0;bottom=0;right=0;overflow=hidden;fontSize=12;" vertex="1" parent="Aqwf1nDUhG2ANLDway5e-95">
          <mxGeometry width="49" height="40" as="geometry">
            <mxRectangle width="49" height="40" as="alternateBounds" />
          </mxGeometry>
        </mxCell>
        <mxCell id="Aqwf1nDUhG2ANLDway5e-97" value="Value 5" style="shape=partialRectangle;html=1;whiteSpace=wrap;connectable=0;fillColor=none;top=0;left=0;bottom=0;right=0;overflow=hidden;fontSize=12;" vertex="1" parent="Aqwf1nDUhG2ANLDway5e-95">
          <mxGeometry x="49" width="49" height="40" as="geometry">
            <mxRectangle width="49" height="40" as="alternateBounds" />
          </mxGeometry>
        </mxCell>
        <mxCell id="Aqwf1nDUhG2ANLDway5e-98" value="Value 6" style="shape=partialRectangle;html=1;whiteSpace=wrap;connectable=0;fillColor=none;top=0;left=0;bottom=0;right=0;overflow=hidden;fontSize=12;" vertex="1" parent="Aqwf1nDUhG2ANLDway5e-95">
          <mxGeometry x="98" width="49" height="40" as="geometry">
            <mxRectangle width="49" height="40" as="alternateBounds" />
          </mxGeometry>
        </mxCell>
        <mxCell id="Aqwf1nDUhG2ANLDway5e-99" value="" style="shape=tableRow;horizontal=0;startSize=0;swimlaneHead=0;swimlaneBody=0;top=0;left=0;bottom=0;right=0;collapsible=0;dropTarget=0;fillColor=none;points=[[0,0.5],[1,0.5]];portConstraint=eastwest;fontSize=13;" vertex="1" parent="Aqwf1nDUhG2ANLDway5e-90">
          <mxGeometry y="80" width="147" height="40" as="geometry" />
        </mxCell>
        <mxCell id="Aqwf1nDUhG2ANLDway5e-100" value="Value 7" style="shape=partialRectangle;html=1;whiteSpace=wrap;connectable=0;fillColor=none;top=0;left=0;bottom=0;right=0;overflow=hidden;fontSize=12;" vertex="1" parent="Aqwf1nDUhG2ANLDway5e-99">
          <mxGeometry width="49" height="40" as="geometry">
            <mxRectangle width="49" height="40" as="alternateBounds" />
          </mxGeometry>
        </mxCell>
        <mxCell id="Aqwf1nDUhG2ANLDway5e-101" value="Value 8" style="shape=partialRectangle;html=1;whiteSpace=wrap;connectable=0;fillColor=none;top=0;left=0;bottom=0;right=0;overflow=hidden;fontSize=12;" vertex="1" parent="Aqwf1nDUhG2ANLDway5e-99">
          <mxGeometry x="49" width="49" height="40" as="geometry">
            <mxRectangle width="49" height="40" as="alternateBounds" />
          </mxGeometry>
        </mxCell>
        <mxCell id="Aqwf1nDUhG2ANLDway5e-102" value="Value 9" style="shape=partialRectangle;html=1;whiteSpace=wrap;connectable=0;fillColor=none;top=0;left=0;bottom=0;right=0;overflow=hidden;fontSize=12;" vertex="1" parent="Aqwf1nDUhG2ANLDway5e-99">
          <mxGeometry x="98" width="49" height="40" as="geometry">
            <mxRectangle width="49" height="40" as="alternateBounds" />
          </mxGeometry>
        </mxCell>
      </root>
    </mxGraphModel>
  </diagram>
</mxfile>
